<svg width="193" height="42" viewBox="0 0 193 42" fill="#fff" xmlns="http://www.w3.org/2000/svg">
<path d="M65.072 38.464C63.248 36.64 62.336 34.464 62.336 31.936V20.848C62.336 18 61.36 15.552 59.408 13.504C57.456 11.456 55.056 10.432 52.208 10.432C49.392 10.432 46.992 11.472 45.008 13.552C43.024 15.6 42.032 18.032 42.032 20.848V41.2C38.704 41.2 36.128 40.288 34.304 38.464C32.48 36.64 31.568 34.464 31.568 31.936V20.848C31.568 18 30.592 15.552 28.64 13.504C26.688 11.456 24.288 10.432 21.44 10.432C18.624 10.432 16.224 11.472 14.24 13.552C12.256 15.6 11.264 18.032 11.264 20.848V31.936C11.264 34.496 10.352 36.688 8.528 38.512C6.736 40.304 4.16 41.2 0.8 41.2V20.848C0.8 15.216 2.816 10.4 6.848 6.4C10.912 2.4 15.776 0.399998 21.44 0.399998C27.552 0.399998 32.688 2.688 36.848 7.264C38.8 5.12 41.12 3.44 43.808 2.224C46.496 1.008 49.296 0.399998 52.208 0.399998C57.872 0.399998 62.72 2.4 66.752 6.4C70.784 10.368 72.8 15.184 72.8 20.848V41.2C69.472 41.2 66.896 40.288 65.072 38.464ZM89.3124 41.2H76.7844C76.7844 37.968 77.6484 35.488 79.3764 33.76C81.1044 32.032 83.1844 31.168 85.6164 31.168H89.3124C92.1284 31.168 94.5284 30.16 96.5124 28.144C98.4964 26.096 99.4884 23.664 99.4884 20.848V9.664C99.4884 7.136 100.4 4.96 102.224 3.136C104.048 1.312 106.624 0.399998 109.952 0.399998V20.848C109.952 26.48 107.92 31.28 103.856 35.248C99.8244 39.216 94.9764 41.2 89.3124 41.2ZM134.268 41.2C128.604 41.2 123.74 39.216 119.676 35.248C115.644 31.28 113.628 26.48 113.628 20.848C113.628 15.216 115.644 10.4 119.676 6.4C123.74 2.4 128.604 0.399998 134.268 0.399998C139.932 0.399998 144.796 2.4 148.86 6.4C152.924 10.4 154.956 15.216 154.956 20.848V41.2H134.268ZM144.396 20.848C144.396 18 143.42 15.552 141.468 13.504C139.516 11.456 137.116 10.432 134.268 10.432C131.42 10.432 129.02 11.456 127.068 13.504C125.116 15.552 124.14 18 124.14 20.848C124.14 23.664 125.116 26.096 127.068 28.144C129.052 30.16 131.452 31.168 134.268 31.168H144.396V20.848ZM189.532 7.84C187.804 9.568 185.724 10.432 183.292 10.432H179.596C176.78 10.432 174.38 11.456 172.396 13.504C170.412 15.52 169.42 17.936 169.42 20.752V31.936C169.42 34.464 168.508 36.64 166.684 38.464C164.86 40.288 162.284 41.2 158.956 41.2V20.752C158.956 15.12 160.972 10.32 165.004 6.352C169.068 2.384 173.932 0.399998 179.596 0.399998H192.124C192.124 3.632 191.26 6.112 189.532 7.84Z" fill="#fff"/>
</svg>
